HIERARCHY
ROOT hip
{
	OFFSET 0.000000 0.000000 0.000000 
	CHANNELS 6 Xposition Yposition Zposition Xrotation Zrotation Yrotation
	JOINT abdomen
	{
		OFFSET 0.000000 3.402643 0.000000 
		CHANNELS 3 Xrotation Zrotation Yrotation
		JOINT chest
		{
			OFFSET 0.000000 8.438565 -0.680529 
			CHANNELS 3 Xrotation Zrotation Yrotation
			JOINT neck
			{
				OFFSET 0.000000 10.207942 -0.272212 
				CHANNELS 3 Xrotation Zrotation Yrotation
				JOINT head
				{
					OFFSET 0.000000 3.130431 0.000000 
					CHANNELS 3 Xrotation Zrotation Yrotation
					End Site
					{
						OFFSET 0.000000 3.130435 0.000000 
					}
				}
			}
			JOINT lCollar
			{
				OFFSET 3.470700 6.669187 -0.816635 
				CHANNELS 3 Yrotation Zrotation Xrotation
				JOINT lShldr
				{
					OFFSET 3.198488 0.000000 0.000000 
					CHANNELS 3 Zrotation Yrotation Xrotation
					JOINT lForeArm
					{
						OFFSET 10.139888 0.000000 0.000000 
						CHANNELS 3 Yrotation Zrotation Xrotation
						JOINT lHand
						{
							OFFSET 8.370511 0.000000 0.000000 
							CHANNELS 3 Zrotation Yrotation Xrotation
							End Site
							{
								OFFSET 4.083176 0.000000 0.000000 
							}
						}
					}
				}
			}
			JOINT rCollar
			{
				OFFSET -3.470700 6.669187 -0.816635 
				CHANNELS 3 Yrotation Zrotation Xrotation
				JOINT rShldr
				{
					OFFSET -3.198488 0.000000 0.000000 
					CHANNELS 3 Zrotation Yrotation Xrotation
					JOINT rForeArm
					{
						OFFSET -10.139888 0.000000 0.000000 
						CHANNELS 3 Yrotation Zrotation Xrotation
						JOINT rHand
						{
							OFFSET -8.370511 0.000000 0.000000 
							CHANNELS 3 Zrotation Yrotation Xrotation
							End Site
							{
								OFFSET -4.083176 0.000000 0.000000 
							}
						}
					}
				}
			}
		}
	}
	JOINT lThigh
	{
		OFFSET 5.308129 -1.633274 1.361059 
		CHANNELS 3 Xrotation Zrotation Yrotation
		JOINT lShin
		{
			OFFSET -2.041588 -20.007561 0.000000 
			CHANNELS 3 Xrotation Zrotation Yrotation
			JOINT lFoot
			{
				OFFSET 0.000000 -19.190928 -1.224953 
				CHANNELS 3 Xrotation Yrotation Zrotation
				End Site
				{
					OFFSET 0.000000 -2.449906 4.627600 
				}
			}
		}
	}
	JOINT rThigh
	{
		OFFSET -5.308129 -1.633274 1.361059 
		CHANNELS 3 Xrotation Zrotation Yrotation
		JOINT rShin
		{
			OFFSET 2.041588 -20.007561 0.000000 
			CHANNELS 3 Xrotation Zrotation Yrotation
			JOINT rFoot
			{
				OFFSET 0.000000 -19.190928 -1.224953 
				CHANNELS 3 Xrotation Yrotation Zrotation
				End Site
				{
					OFFSET 0.000000 -2.449906 4.627600 
				}
			}
		}
	}
}
MOTION
Frames: 13
Frame Time: 0.016667
-0.670042 43.760490 0.709533 3.226980 -2.964050 -5.343100 -16.109800 1.716300 0.112596 25.935900 -4.666950 0.312866 13.040200 2.677820 -3.978080 11.573400 5.028380 -1.450510 2.000000 -2.000000 0.000000 95.615898 -179.936996 -5.781120 15.810700 -0.346391 0.037311 0.046922 -0.026999 -146.608994 -2.000000 2.000000 0.000000 -97.041000 178.158997 1.860180 -39.424198 0.320458 0.086826 -0.071766 0.058560 -154.626999 -17.590057 7.889488 3.362120 48.631794 2.140364 3.313019 -17.202023 5.990306 2.841733 -17.674505 5.287236 -9.684052 34.937817 -2.117443 -2.770528 -23.895973 -14.653440 -6.884752 
-0.506557 43.775143 0.664746 3.334690 -3.012480 -5.888610 -16.187799 1.696950 0.115978 25.935900 -4.666950 0.303100 13.121400 2.490360 -3.790910 11.592200 4.970030 -1.349070 2.000000 -2.000000 0.000000 95.469902 179.860992 -7.461260 14.834200 -0.347007 0.035064 0.046291 -0.023002 -145.164001 -2.000000 2.000000 0.000000 -97.031303 178.188995 2.367610 -40.283600 0.319143 0.088400 -0.072001 0.059289 -154.899994 -16.713892 7.773011 3.185748 47.686031 2.228074 3.246345 -16.939127 6.823675 3.092503 -17.798187 5.214035 -9.576096 34.808872 -2.130358 -2.747994 -23.593075 -14.370312 -6.650083 
-0.331886 43.783108 0.614612 3.432670 -3.070660 -6.453890 -16.275600 1.674100 0.110016 25.916100 -4.647650 0.296742 13.174400 2.331680 -3.610030 11.591400 4.911950 -1.259950 2.000000 -2.000000 0.000000 -84.705399 0.330216 171.014999 14.062700 -0.347466 0.033281 0.045807 -0.019369 -143.854996 -2.000000 2.000000 0.000000 -97.031303 178.220001 2.826530 -41.015999 0.318005 0.089726 -0.072187 0.050095 -155.115005 -15.812940 7.593134 2.982019 46.465424 2.318174 3.165121 -17.193336 7.325866 3.306493 -17.934982 5.137153 -9.410630 34.712563 -2.124671 -2.777605 -23.286087 -14.053251 -6.407732 
-0.147799 43.781948 0.557927 3.530660 -3.128830 -7.029130 -16.344101 1.669240 0.068938 25.896000 -4.579740 0.275371 13.218700 2.210730 -3.431670 11.600700 4.873100 -1.166590 2.000000 -2.000000 0.000000 -84.919701 0.503079 169.774002 13.515800 -0.347777 0.032014 0.045486 -0.016516 -142.830002 -2.000000 2.000000 0.000000 -97.041199 178.220993 3.207380 -41.611698 0.317067 0.090794 -0.072316 0.050485 -155.261993 -14.946843 7.375214 2.808059 45.027184 2.430916 3.065195 -17.924210 7.418598 3.452742 -18.124517 5.051596 -9.230309 34.653625 -2.122539 -2.768515 -22.986498 -13.778198 -6.194100 
0.045026 43.771931 0.492166 3.628600 -3.167480 -7.583810 -16.402800 1.654160 0.000660 25.875601 -4.472920 0.247801 13.245200 2.127050 -3.265620 11.600300 4.844060 -1.082550 2.000000 -2.000000 0.000000 -85.134201 0.647684 168.973007 13.174000 -0.347966 0.031220 0.045310 -0.014720 -142.184998 -2.000000 2.000000 0.000000 -97.051003 178.192001 3.490660 -42.041401 0.316383 0.091558 -0.072342 0.050563 -155.291000 -14.138860 7.111530 2.702127 43.502522 2.524312 2.995442 -18.940237 7.350021 3.564233 -18.357090 4.954041 -9.034674 34.692616 -2.124821 -2.768342 -22.754736 -13.537047 -6.028419 
0.245340 43.755604 0.415266 3.726580 -3.215860 -8.090430 -16.451599 1.626360 -0.073763 25.845400 -4.356450 0.202271 13.265100 2.117100 -3.121620 11.619800 4.834120 -1.004060 2.000000 -2.000000 0.000000 -85.309898 0.744769 168.729004 13.056800 -0.348029 0.030948 0.045268 -0.014257 -142.018997 -2.000000 2.000000 0.000000 -97.021698 178.134003 3.627510 -42.285599 0.315992 0.091990 -0.072239 0.050251 -155.173996 -13.378993 6.842227 2.787396 41.946514 2.610976 2.881478 -19.868277 7.430515 3.734551 -18.628836 4.860301 -8.824235 34.770264 -2.128241 -2.757908 -22.536718 -13.346635 -5.895212 
0.453503 43.737103 0.326198 3.834320 -3.254430 -8.567810 -16.480900 1.591840 -0.165966 25.824900 -4.230170 0.156796 13.278300 2.171330 -3.001820 11.629900 4.853350 -0.942069 2.000000 -2.000000 0.000000 -85.436996 0.784609 169.061005 13.154400 -0.347976 0.031175 0.045343 -0.015074 -142.311996 -2.000000 2.000000 0.000000 -96.953300 178.085007 3.598330 -42.373501 0.315851 0.092145 -0.072034 0.059393 -154.938995 -12.766478 6.588979 3.067086 40.636208 2.689204 2.796178 -20.781839 7.741819 3.990996 -18.922487 4.762698 -8.576207 34.848812 -2.121964 -2.754332 -22.327724 -13.212641 -5.757334 
0.669544 43.717701 0.223656 3.951930 -3.312440 -8.998420 -16.510000 1.547960 -0.255396 25.794800 -4.113670 0.111046 13.266100 2.299050 -2.915350 11.640000 4.882250 -0.888546 2.000000 -2.000000 0.000000 -85.505699 0.737636 169.852005 13.427900 -0.347826 0.031810 0.045511 -0.016761 -142.917999 -2.000000 2.000000 0.000000 -96.855598 178.026001 3.422690 -42.305099 0.315961 0.092024 -0.071791 0.058638 -154.656006 -12.274051 6.370638 3.501119 39.504356 2.741597 2.735957 -21.646908 8.133438 4.264839 -19.259762 4.693544 -8.326458 34.957790 -2.116861 -2.779605 -22.110510 -13.138370 -5.678587 
0.892939 43.698547 0.107608 4.089160 -3.380070 -9.411580 -16.529200 1.500730 -0.353709 25.774401 -3.997090 0.054732 13.207400 2.473580 -2.852130 11.640700 4.930650 -0.842196 2.000000 -2.000000 0.000000 -85.545197 0.593749 170.955994 13.857600 -0.347584 0.032806 0.045774 -0.019098 -143.757996 -2.000000 2.000000 0.000000 -96.738403 177.975998 3.168900 -42.090302 0.316305 0.091645 -0.071567 0.057934 -154.391998 -11.844640 6.175876 4.059893 38.343494 2.780759 2.670516 -22.426052 8.513707 4.577839 -19.615437 4.641542 -8.030943 35.006950 -2.111481 -2.776911 -21.853811 -13.155993 -5.615835 
1.124764 43.679649 -0.021660 4.226500 -3.467130 -9.787440 -16.538601 1.444220 -0.448989 25.744301 -3.880570 -0.000999 13.102300 2.685510 -2.814980 11.622000 4.998670 -0.815329 2.000000 -2.000000 0.000000 94.473900 179.667007 -7.735130 14.424000 -0.347254 0.034117 0.046119 -0.021783 -144.723999 -2.000000 2.000000 0.000000 -96.611397 177.936005 2.856500 -41.719200 0.316896 0.090986 -0.071380 0.057334 -154.167999 -11.559014 5.967620 4.580888 37.378254 2.815670 2.599517 -23.245626 8.906713 4.888358 -19.998184 4.606942 -7.721102 35.075489 -2.109526 -2.774794 -21.591963 -13.219678 -5.573196 
1.366707 43.662048 -0.167070 4.393190 -3.544270 -10.125700 -16.547800 1.374910 -0.550627 25.714500 -3.793220 -0.059479 12.959900 2.925880 -2.795480 11.593600 5.066840 -0.799137 2.000000 -2.000000 0.000000 94.541801 -179.985001 -6.279280 15.127100 -0.346826 0.035739 0.046551 -0.024732 -145.789001 -2.000000 2.000000 0.000000 -96.474602 177.916000 2.465920 -41.230900 0.317668 0.090113 -0.061437 0.046994 -153.953003 -11.392776 5.713745 4.919140 36.474506 2.833653 2.570162 -23.988094 9.361751 5.227474 -20.420406 4.578348 -7.397593 35.145874 -2.094351 -2.797878 -21.292234 -13.359357 -5.557767 
1.620659 43.645096 -0.327932 4.579430 -3.611510 -10.406300 -16.547100 1.286960 -0.646456 25.665100 -3.725420 -0.108759 12.780000 3.175750 -2.799640 11.555300 5.135140 -0.793656 2.000000 -2.000000 0.000000 94.678200 -179.520004 -4.725510 15.937700 -0.346309 0.037602 0.047062 -0.027808 -146.901993 -2.000000 2.000000 0.000000 -96.308601 177.914993 1.997530 -40.625401 0.318614 0.089021 -0.061246 0.046366 -153.718994 -11.285738 5.416235 4.975887 35.667469 2.854695 2.520859 -24.762705 9.921254 5.624667 -20.875904 4.522297 -7.102315 35.174881 -2.100596 -2.799091 -20.960022 -13.510822 -5.533469 
1.887956 43.628639 -0.502816 4.765650 -3.668950 -10.638300 -16.526600 1.180420 -0.736278 25.615999 -3.686790 -0.170501 12.551600 3.388470 -2.829090 11.497400 5.203730 -0.790039 2.000000 -2.000000 0.000000 94.853699 -178.938004 -3.161710 16.845900 -0.345697 0.039681 0.047632 -0.030872 -148.014999 -2.000000 2.000000 0.000000 -96.152298 177.914001 1.470180 -39.922298 0.319699 0.087741 -0.061003 0.045553 -153.416000 -11.311274 5.026897 4.735105 34.999565 2.855248 2.481990 -25.417315 10.586931 6.066239 -21.364395 4.422239 -6.882932 35.224308 -2.097612 -2.806791 -20.562145 -13.652167 -5.480339 
